<svg xmlns="http://www.w3.org/2000/svg" width="160" height="160" viewBox="0 0 160 160" role="img" aria-labelledby="title desc">
  <title id="title">adaptiSeq mark</title>
  <desc id="desc">A rounded-square mark with an adaptive DNA path, segmented transfer rungs, and a forward flow arrow.</desc>
  <defs>
    <linearGradient id="pathA" x1="34" y1="24" x2="126" y2="136" gradientUnits="userSpaceOnUse">
      <stop offset="0" stop-color="#67e8f9"/>
      <stop offset="0.52" stop-color="#2dd4bf"/>
      <stop offset="1" stop-color="#0f766e"/>
    </linearGradient>
    <linearGradient id="pathB" x1="126" y1="24" x2="34" y2="136" gradientUnits="userSpaceOnUse">
      <stop offset="0" stop-color="#38bdf8"/>
      <stop offset="0.56" stop-color="#14b8a6"/>
      <stop offset="1" stop-color="#84cc16"/>
    </linearGradient>
    <linearGradient id="tile" x1="20" y1="18" x2="140" y2="142" gradientUnits="userSpaceOnUse">
      <stop offset="0" stop-color="#0f2937"/>
      <stop offset="1" stop-color="#07151f"/>
    </linearGradient>
  </defs>
  <rect x="16" y="16" width="128" height="128" rx="28" fill="url(#tile)" stroke="#12384a" stroke-width="1.5"/>
  <g fill="none" stroke-linecap="round" stroke-linejoin="round">
    <path d="M47 34C112 34 48 126 113 126" stroke="url(#pathA)" stroke-width="10"/>
    <path d="M113 34C48 34 112 126 47 126" stroke="url(#pathB)" stroke-width="10"/>
    <g stroke="#dbeafe" stroke-width="4.2" opacity="0.9">
      <path d="M55 42H105"/>
      <path d="M62 58H98"/>
      <path d="M70 74H90"/>
      <path d="M70 86H90"/>
      <path d="M62 102H98"/>
      <path d="M55 118H105"/>
    </g>
    <path d="M92 108H121M111 98l10 10-10 10" stroke="#fbbf24" stroke-width="7"/>
  </g>
  <g>
    <circle cx="47" cy="34" r="4.8" fill="#67e8f9"/>
    <circle cx="113" cy="34" r="4.8" fill="#38bdf8"/>
    <circle cx="47" cy="126" r="4.8" fill="#84cc16"/>
    <circle cx="113" cy="126" r="4.8" fill="#0f766e"/>
  </g>
</svg>
